HIERARCHY
ROOT Hips
{
  OFFSET 77.7475 95.8264 -32.2795
  CHANNELS 6 Xposition Yposition Zposition Zrotation Xrotation Yrotation
  JOINT RightUpLeg
  {
    OFFSET -8.9458 -8.66707 0.101652
    CHANNELS 3 Zrotation Xrotation Yrotation
    JOINT RightLeg
    {
      OFFSET 0 -44.4227 1.3727
      CHANNELS 3 Zrotation Xrotation Yrotation
      JOINT RightFoot
      {
        OFFSET 0.253549 -42.0924 -1.46059
        CHANNELS 3 Zrotation Xrotation Yrotation
        JOINT RightToes
        {
          OFFSET 0.04 -4.41509 8.4991
          CHANNELS 3 Zrotation Xrotation Yrotation
          End Site
          {
            OFFSET -0.08 -0.137448 9.77979
          }
        }
      }
    }
  }
  JOINT Spine
  {
    OFFSET 0 11.8905 0
    CHANNELS 3 Zrotation Xrotation Yrotation
    JOINT Spine1
    {
      OFFSET 0 25.6574 0.127663
      CHANNELS 3 Zrotation Xrotation Yrotation
      JOINT HEad
      {
        OFFSET 0 8.73416 0.011341
        CHANNELS 3 Zrotation Xrotation Yrotation
        End Site
        {
          OFFSET -0.29 12.7742 2.51395
        }
      }
      JOINT LeftShoulder1
      {
        OFFSET 8.99 -0.362252 -0.22
        CHANNELS 3 Zrotation Xrotation Yrotation
        JOINT LeftArm
        {
          OFFSET 10.2827 -0.00338 0.322123
          CHANNELS 3 Zrotation Xrotation Yrotation
          JOINT LeftForeArm
          {
            OFFSET 32.7669 0.099144 -1.42434
            CHANNELS 3 Zrotation Xrotation Yrotation
            JOINT LeftHand
            {
              OFFSET 27.5643 0.085362 1.02216
              CHANNELS 3 Zrotation Xrotation Yrotation
              End Site
              {
                OFFSET 16.7443 -0.6 1.50291
              }
            }
          }
        }
      }
      JOINT RightShoulder
      {
        OFFSET -8.99 -0.362252 -0.22
        CHANNELS 3 Zrotation Xrotation Yrotation
        JOINT RightArm
        {
          OFFSET -10.2827 -0.00338 0.322123
          CHANNELS 3 Zrotation Xrotation Yrotation
          JOINT RightForeArm
          {
            OFFSET -32.8971 0.099144 -1.42434
            CHANNELS 3 Zrotation Xrotation Yrotation
            JOINT RightHand
            {
              OFFSET -27.4921 0.085362 1.02216
              CHANNELS 3 Zrotation Xrotation Yrotation
              End Site
              {
                OFFSET -16.6312 -0.6 1.50291
              }
            }
          }
        }
      }
    }
  }
  JOINT LeftUpLeg
  {
    OFFSET 8.9458 -8.66707 0.101652
    CHANNELS 3 Zrotation Xrotation Yrotation
    JOINT LeftLeg
    {
      OFFSET 0 -44.4227 1.3727
      CHANNELS 3 Zrotation Xrotation Yrotation
      JOINT LeftFoot
      {
        OFFSET -0.253549 -42.0924 -1.46059
        CHANNELS 3 Zrotation Xrotation Yrotation
        JOINT LeftToes
        {
          OFFSET -0.04 -4.41509 8.4991
          CHANNELS 3 Zrotation Xrotation Yrotation
          End Site
          {
            OFFSET 0.08 -0.047448 9.77979
          }
        }
      }
    }
  }
}
MOTION
Frames:	10
Frame Time:	0.0166667
71.3564 97.4363 -38.6837 7.92022 11.133 144.939 -31.0678 0.253227 14.5861 50.2576 18.925 -41.5184 -29.2602 -0.142925 -1.72092 0.0462048 0.000533403 0.662642 -12.3847 26.9234 2.77568 0.0901693 0.0434098 -0.472969 -10.1077 23.3299 11.6634 1.76556e-031 3.18055e-015 -3.18055e-015 -159.058 -54.5956 -140.428 29.2284 83.1161 -142.11 8.6951 -1.53286 -8.01903 19.1965 9.81353 0.406655 103.232 -8.56947 73.726 13.8554 51.8901 90.1854 16.9318 21.474 6.87567 13.9908 -2.98981 -16.5314 -25.8476 15.6272 64.8289 9.03883 -2.75685 0.397173 -1.31974e-009 1.55935e-007 -4.90031e-009 
70.8772 97.5688 -38.9057 8.14029 10.9346 145.033 -30.8786 -1.44121 13.4667 50.3919 21.7212 -40.9313 -28.7898 -0.0145545 -1.74509 0.0462048 0.000533403 0.662642 -11.9697 27.0744 2.54937 0.0878402 0.0423075 -0.461216 -10.0117 22.3618 12.6291 1.59028e-015 0 -9.54166e-015 -159.521 -54.4968 -140.8 29.4704 82.8325 -142.487 9.16722 -1.48777 -7.8944 19.204 9.89853 0.626692 103.727 -8.68539 74.2883 12.937 52.109 91.3154 16.9296 21.387 6.77491 14.1076 -3.39401 -14.7323 -25.9011 16.6059 63.6572 10.2799 -2.78584 0.457723 -1.31974e-009 1.55935e-007 -4.90031e-009 
70.403 97.7169 -39.0619 8.34998 10.6931 145.18 -30.6817 -2.894 12.485 50.2533 24.0324 -40.3641 -28.1518 0.0458749 -1.74552 0.0462048 0.000533403 0.662642 -11.4919 27.1847 2.31192 0.0851585 0.0411437 -0.448079 -9.93577 21.5089 13.4825 -0 -1.59028e-015 -0 -160.008 -54.2893 -141.133 29.2572 82.667 -142.428 9.68255 -1.32652 -7.7356 19.1637 9.95899 0.872108 104.236 -8.80179 74.8967 12.0182 52.3009 92.4415 16.921 21.3196 6.65993 14.2391 -3.84625 -13.0887 -25.8888 17.4573 62.5019 11.5596 -2.78449 0.525976 -1.31974e-009 1.55935e-007 -4.90031e-009 
69.9439 97.8765 -39.1587 8.54179 10.4182 145.383 -30.4441 -4.08353 11.6379 49.9275 25.9607 -39.774 -27.5972 0.0771034 -1.73496 0.0462048 0.000533403 0.662642 -10.9591 27.2571 2.06536 0.0823046 0.0399191 -0.433679 -9.88289 20.7697 14.2162 -1.59028e-015 1.59028e-015 6.36111e-015 -160.497 -53.9773 -141.388 28.6623 82.6138 -141.994 10.2025 -1.0843 -7.54649 19.0769 9.99343 1.13459 104.759 -8.91794 75.5527 11.0964 52.4626 93.5513 16.9076 21.2525 6.52721 14.3749 -4.33888 -11.6087 -25.8207 18.1776 61.3652 12.8659 -2.76931 0.59927 -1.31974e-009 1.55935e-007 -4.90031e-009 
69.5132 98.0444 -39.204 8.71061 10.1214 145.646 -30.173 -5.00976 10.9324 49.49 27.5589 -39.1546 -27.0026 0.0853105 -1.71426 0.0462048 0.000533403 0.662642 -10.3798 27.2958 1.81089 0.0793048 0.0386345 -0.418134 -9.85547 20.1422 14.8271 0 1.59028e-015 -0 -160.972 -53.5732 -141.54 27.7086 82.6694 -141.196 10.7592 -0.750916 -7.33798 18.9477 9.99987 1.40031 105.289 -9.02902 76.2472 10.1694 52.5942 94.6333 16.8918 21.1887 6.39361 14.5016 -4.84948 -10.3013 -25.6914 18.7592 60.2414 14.1809 -2.74399 0.675834 -1.31974e-009 1.55935e-007 -4.90031e-009 
69.1248 98.2124 -39.2046 8.85348 9.81499 145.97 -29.8637 -5.68335 10.3705 48.988 28.8477 -38.5066 -26.4531 0.0799422 -1.6894 0.0462048 0.000533403 0.662642 -9.76435 27.3042 1.55038 0.0760225 0.0372908 -0.401565 -9.85479 19.6251 15.3156 -1.59028e-015 3.18055e-015 6.36111e-015 -161.432 -53.0968 -141.574 26.3769 82.8313 -140.012 11.3229 -0.342338 -7.11459 18.7772 9.97622 1.65862 105.82 -9.13233 76.9627 9.23602 52.6978 95.6791 16.8792 21.1148 6.25895 14.6115 -5.35677 -9.17255 -25.5035 19.2053 59.1297 15.4832 -2.71371 0.753486 -1.31974e-009 1.55935e-007 -4.90031e-009 
68.7995 98.4015 -39.1902 8.97315 9.51651 146.361 -29.5157 -5.57015 11.018 48.5332 28.6746 -38.2311 -25.9459 0.0092497 -1.65359 0.0462048 0.000533403 0.662642 -9.12239 27.2908 1.28003 0.0725399 0.0356443 -0.384093 -9.88084 19.2182 15.6864 -1.59028e-015 3.18055e-015 -0 -161.881 -52.5745 -141.485 24.593 83.0896 -138.366 11.8998 0.157277 -6.88525 18.5609 9.92447 1.902 106.349 -9.22604 77.6768 8.29547 52.7757 96.6848 16.8748 21.0339 6.13299 14.6626 -5.78386 -8.2386 -25.1751 19.4621 57.9823 16.7508 -2.63681 0.834289 -1.31974e-009 1.55935e-007 -4.90031e-009 
68.6014 98.5294 -39.1952 9.07373 9.24689 146.824 -28.8111 -4.8661 12.6061 49.2956 28.5958 -38.1713 -28.9883 0.369912 -1.68672 0.0462048 0.000533403 0.662642 -8.46719 27.2649 0.993645 0.0689406 0.0338856 -0.365836 -9.93161 18.9235 15.9489 -2.64834e-031 -1.59028e-015 -9.54166e-015 -162.316 -52.0398 -141.271 22.2372 83.4201 -136.136 12.4578 0.749909 -6.65324 18.2941 9.8546 2.11743 106.875 -9.30158 78.3654 7.34742 52.8296 97.6534 16.8736 20.9426 6.01664 14.7742 -6.20244 -7.49888 -24.988 19.7411 56.9419 17.9204 -2.69071 0.907165 -1.31974e-009 1.55935e-007 -4.90032e-009 
68.4672 98.6999 -39.1825 9.1523 9.01673 147.349 -28.619 -4.28813 14.2417 49.6917 27.7886 -38.3498 -26.5623 0.0424336 -1.65952 0.0462048 0.000533403 0.662642 -7.82286 27.2224 0.699623 0.0651903 0.0320853 -0.346916 -10.0023 18.7416 16.1154 1.59028e-015 3.18055e-015 -0 -162.736 -51.5239 -140.934 19.1956 83.7917 -133.211 13.0019 1.43276 -6.41824 17.9741 9.77943 2.28495 107.396 -9.34294 79.0056 6.39225 52.8632 98.5916 16.88 20.8505 5.90893 14.7442 -6.43135 -6.95643 -24.494 19.7236 55.7707 19.048 -2.5725 0.981703 -1.31974e-009 1.55935e-007 -4.90031e-009 
68.4035 98.8085 -39.1389 9.20521 8.83039 147.92 -28.2225 -3.72323 15.7225 49.6127 26.493 -38.5085 -26.9246 0.00332041 -1.644 0.0462048 0.000533403 0.662642 -7.2137 27.1583 0.412819 0.0613217 0.0302529 -0.327451 -10.0865 18.6693 16.198 1.59028e-015 1.59028e-015 6.36111e-015 -163.145 -51.0477 -140.489 15.3465 84.1786 -129.473 13.5006 2.19814 -6.19018 17.6282 9.70711 2.389 107.89 -9.34377 79.5803 5.43804 52.8819 99.5027 16.8656 20.7521 5.81393 14.7182 -6.63362 -6.57328 -24.0572 19.6848 54.6727 20.1067 -2.49917 1.04779 -1.31974e-009 1.55935e-007 -4.90031e-009 
